<svg xmlns="http://www.w3.org/2000/svg" viewBox="0 0 64 64" fill="none">
  <defs>
    <linearGradient id="vp" x1="0" y1="0" x2="1" y2="1">
      <stop offset="0" stop-color="#2f7df2"/>
      <stop offset="1" stop-color="#1257c0"/>
    </linearGradient>
  </defs>
  <rect width="64" height="64" rx="16" fill="url(#vp)"/>
  <g transform="translate(11 11) scale(1.3)">
    <g fill="#fff">
      <ellipse cx="8.6" cy="13.6" rx="2.7" ry="3.5" transform="rotate(-20 8.6 13.6)"/>
      <ellipse cx="13.4" cy="8.7" rx="2.85" ry="3.7" transform="rotate(-7 13.4 8.7)"/>
      <ellipse cx="18.6" cy="8.7" rx="2.85" ry="3.7" transform="rotate(7 18.6 8.7)"/>
      <ellipse cx="23.4" cy="13.6" rx="2.7" ry="3.5" transform="rotate(20 23.4 13.6)"/>
      <path d="M16 14.4c-4.9 0-8.6 3.2-8.6 7.2 0 3.7 3.8 6.4 8.6 6.4s8.6-2.7 8.6-6.4c0-4-3.7-7.2-8.6-7.2Z"/>
    </g>
    <path d="M9.3 22.1h3.5l1.4-3.6 2.1 6.4 1.5-3h4.9" fill="none" stroke="#ff7a45" stroke-width="1.8" stroke-linecap="round" stroke-linejoin="round"/>
  </g>
</svg>
